<svg xmlns="http://www.w3.org/2000/svg" viewBox="0 0 2048 1851" preserveAspectRatio="none"><path d="M880.589 352.31c2.919-.521 2.929-.517 5.886-.279 3.195 4.963.611 85.793.534 97.847-.336 52.372.496 105.313-.15 157.649-12.086 6.04-29.185 10.874-42.352 17.244-43.113 20.857-79.172 46.741-111.367 81.933-75.492 82.521-97.063 224.87-90.506 333.016 12.923 2.2 52.117 1.6 67.487 1.78 55.984.56 111.972.7 167.958.44 1.713 49.07.511 103.25.898 153.02l2.626 199.63.244 121.3c.022 19.11.948 48.42-.685 66.72-27.127 1.66-68.515.42-96.67.42l-183.992.06-150.567.24c-27.327.31-71.881 2.24-97.951.57-1.239-38.03-.026-81.94-.063-120.43l-.811-198.01q-.322-95.655.359-191.31c.396-36.32.318-81.049 3.728-117.204 11.916-126.352 47.925-253.808 120.722-358.873 60.868-88.51 144.837-152.346 242.117-196.185 56.522-25.471 101.066-38.717 162.555-49.578m809.871-2.021 2.36.2c2.21 4.124 1.04 92.239 1.02 103.983q.405 76.663.03 153.326c-11.89 6.342-29.84 11.775-43.21 17.818a327.9 327.9 0 0 0-110.42 80.75c-32.02 36.256-61.74 95.671-72.87 142.884-13.96 59.272-19.8 129.24-15.95 190.1 16.42 3.07 53.41 1.47 71.58 1.76 54.07.87 110.37-1.65 164.24-.13 1.18 18.99-.05 50.82-.15 70.55l-.14 128.85c.29 70.02-.01 140.03-.92 210.04-.21 41.95.42 89.6-1.18 131.18-27.54 1.09-58.28.61-85.97.71l-194.74-.6-241.58 1.28c-1.91-28.92-.64-70.98-.63-101.31l.42-198.04.28-221.43c.77-86.756 1.45-153.526 22.92-238.058 28.98-114.108 77.46-221.284 162.25-304.929 88.32-87.145 220.6-150.528 342.66-168.934"/></svg>